<?xml version="1.0" encoding="iso-8859-1"?>
<!-- Uploaded to: SVG Repo, www.svgrepo.com, Generator: SVG Repo Mixer Tools -->
<!DOCTYPE svg PUBLIC "-//W3C//DTD SVG 1.1//EN" "http://www.w3.org/Graphics/SVG/1.1/DTD/svg11.dtd">
<svg fill="#000000" version="1.1" id="Capa_1" xmlns="http://www.w3.org/2000/svg" xmlns:xlink="http://www.w3.org/1999/xlink" 
	 width="800px" height="800px" viewBox="0 0 49.442 49.442"
	 xml:space="preserve">
<g>
	<g>
		<path d="M25.323,2.811c6.39,0,12.095,2.969,15.824,7.592l-2.448,1.73l7.704,2.63l-0.801-7.505l-2.157,1.523
			C39.202,3.437,32.66,0,25.323,0c-3.613,0-7.035,0.834-10.085,2.316l0.898,2.696C18.898,3.608,22.018,2.811,25.323,2.811z"/>
		<path d="M45.499,28.365c-0.707,3.018-2.108,5.917-4.238,8.441c-4.121,4.886-10.067,7.332-16.007,7.203l0.258-2.988l-6.978,4.193
			l6.252,4.228l0.228-2.632c6.818,0.201,13.666-2.584,18.396-8.19c2.33-2.763,3.897-5.915,4.731-9.203L45.499,28.365z"/>
		<path d="M5.632,31.42c-2.427-5.91-1.848-12.315,1.014-17.522l2.529,1.61L8.682,7.381l-6.638,3.59l2.229,1.418
			c-3.331,5.953-4.027,13.313-1.24,20.099c1.371,3.345,3.442,6.191,5.972,8.451l2.153-1.856C8.809,37.062,6.886,34.477,5.632,31.42z
			"/>
		<path d="M25.325,38.596l0.363-0.031c0.018,0,0.033,0.002,0.05,0.002c4.957,0,9.357-2.415,12.091-6.129
			c0.478-0.649,0.901-1.34,1.271-2.062c0.829-1.619,1.374-3.408,1.563-5.302c0.05-0.491,0.075-0.989,0.075-1.493
			c0-0.076-0.005-0.152-0.006-0.229c-0.021-1.376-0.229-2.708-0.6-3.972c-0.137-0.467-0.295-0.923-0.475-1.37
			c-0.365-0.906-0.815-1.77-1.344-2.579c-0.239-0.367-0.494-0.723-0.764-1.066c-0.739-0.943-1.588-1.795-2.527-2.538
			c-0.322-0.254-0.653-0.497-0.995-0.725c-2.377-1.582-5.229-2.506-8.292-2.506c-2.712,0-5.255,0.727-7.453,1.989
			c-0.361,0.208-0.713,0.429-1.055,0.664c-0.965,0.667-1.85,1.443-2.634,2.313c-0.303,0.335-0.591,0.684-0.862,1.045
			c-0.752,1.001-1.379,2.099-1.863,3.27c-0.186,0.448-0.349,0.906-0.49,1.375c-0.382,1.257-0.598,2.583-0.632,3.954
			c-0.003,0.126-0.01,0.25-0.01,0.376c0,0.458,0.024,0.91,0.064,1.356c0.151,1.672,0.578,3.262,1.233,4.729
			c0.341,0.763,0.741,1.491,1.199,2.181c2.616,3.937,7.044,6.565,12.085,6.705C25.324,38.575,25.325,38.592,25.325,38.596z
			 M26.088,30.008c1.619-0.018,3.183-0.181,4.681-0.459c-0.354,1.498-0.812,2.848-1.271,3.99c-1.059,0.126-2.146,0.199-3.255,0.204
			C26.187,32.624,26.131,31.36,26.088,30.008z M27.729,37.176c-0.417,0.062-0.84,0.103-1.268,0.125
			c-0.042-0.593-0.095-1.385-0.149-2.328c0.894-0.006,1.771-0.053,2.632-0.137C28.414,35.99,27.95,36.805,27.729,37.176z
			 M29.922,36.678c-0.194,0.062-0.392,0.114-0.589,0.168c0.301-0.562,0.668-1.301,1.048-2.185c0.555-0.082,1.104-0.173,1.641-0.284
			C31.083,35.545,30.267,36.352,29.922,36.678z M30.91,33.334c0.445-1.193,0.876-2.561,1.194-4.072
			c1.218-0.295,2.373-0.672,3.463-1.123c-0.607,1.783-1.506,3.385-2.415,4.715C32.427,33.045,31.676,33.202,30.91,33.334z
			 M32.849,35.336c0.354-0.431,0.728-0.912,1.103-1.439c0.451-0.129,0.897-0.266,1.333-0.414
			C34.548,34.189,33.727,34.805,32.849,35.336z M36.993,31.492c-0.638,0.291-1.308,0.553-1.994,0.791
			c0.84-1.413,1.599-3.045,2.067-4.836c0.773-0.395,1.517-0.816,2.194-1.286C38.889,28.117,38.101,29.924,36.993,31.492z
			 M39.509,23.58c0,0.31-0.014,0.615-0.034,0.92c-0.636,0.51-1.335,0.982-2.088,1.415c0.118-0.767,0.182-1.552,0.168-2.359
			c-0.01-0.589-0.063-1.166-0.148-1.733c0.63-0.431,1.213-0.893,1.735-1.387C39.379,21.447,39.509,22.498,39.509,23.58z
			 M38.759,19.112c-0.474,0.502-1.015,0.973-1.607,1.411c-0.248-1.008-0.597-1.973-1.009-2.886c0.495-0.376,0.952-0.778,1.354-1.207
			C38.01,17.269,38.434,18.168,38.759,19.112z M34.281,12.803c0.946,0.751,1.795,1.621,2.516,2.591
			c-0.35,0.4-0.753,0.777-1.198,1.132c-0.603-1.139-1.286-2.178-1.973-3.093C33.86,13.232,34.08,13.023,34.281,12.803z
			 M34.571,17.246c-0.792,0.492-1.682,0.915-2.648,1.254c-0.303-1.226-0.674-2.385-1.072-3.444c0.641-0.247,1.229-0.548,1.767-0.888
			C33.297,15.078,33.979,16.116,34.571,17.246z M33.295,12.089c-0.128,0.136-0.275,0.261-0.42,0.388
			c-0.374-0.455-0.737-0.869-1.079-1.238C32.313,11.493,32.817,11.774,33.295,12.089z M28.993,10.22
			c0.328,0.284,1.531,1.365,2.871,2.993c-0.445,0.271-0.935,0.511-1.461,0.712c-0.668-1.604-1.353-2.915-1.856-3.805
			C28.697,10.152,28.845,10.184,28.993,10.22z M26.515,9.854c0.155,0.009,0.311,0.019,0.463,0.032
			c0.414,0.676,1.334,2.27,2.231,4.407c-0.911,0.229-1.896,0.359-2.93,0.359c-0.002,0-0.003,0-0.003,0
			C26.37,12.417,26.464,10.715,26.515,9.854z M26.225,15.881c0.019,0,0.037,0.002,0.055,0.002c1.194,0,2.334-0.162,3.386-0.445
			c0.397,1.053,0.771,2.207,1.07,3.424c-1.381,0.362-2.882,0.566-4.456,0.566c-0.058,0-0.115-0.004-0.174-0.005
			C26.142,18.163,26.183,16.973,26.225,15.881z M25.909,20.582c4.751,0.012,8.312-1.703,9.188-2.236
			c0.406,0.923,0.896,2.676,0.951,2.908c0.055,0.232,0.215,0.818,0.206,1.281s-0.041,3.123-0.266,4.107
			c-1.011,0.473-5.35,2.131-9.936,2.139c-4.587,0.008-9.145-1.561-10.251-2.066c-0.235-1.006-0.367-4.123-0.094-5.375
			c0.117-0.406,0.65-2.322,1.149-3.386C17.672,18.515,20.722,20.219,25.909,20.582z M25.011,33.715
			c-0.961-0.035-1.903-0.117-2.822-0.246c-0.445-1.119-0.889-2.434-1.234-3.888c1.255,0.229,2.561,0.372,3.902,0.418
			C24.9,31.342,24.954,32.6,25.011,33.715z M20.77,33.236c-0.772-0.148-1.524-0.328-2.254-0.538
			c-0.858-1.276-1.695-2.792-2.276-4.474c1.064,0.431,2.193,0.789,3.378,1.072C19.927,30.754,20.339,32.075,20.77,33.236z
			 M17.414,16.864c0.619-1.125,1.32-2.148,2.011-3.039c0.47,0.345,0.993,0.652,1.56,0.921c-0.409,1.06-0.798,2.223-1.117,3.46
			C18.962,17.83,18.139,17.378,17.414,16.864z M21.037,18.636c0.313-1.222,0.696-2.374,1.102-3.424
			c0.885,0.302,1.845,0.512,2.857,0.608c-0.043,1.095-0.084,2.286-0.12,3.548C23.516,19.264,22.223,19.014,21.037,18.636z
			 M25.283,9.84c-0.052,0.882-0.144,2.563-0.236,4.751c-0.869-0.086-1.687-0.268-2.444-0.517c0.877-2.051,1.76-3.572,2.152-4.213
			C24.929,9.849,25.106,9.846,25.283,9.84z M22.862,10.132c0.112-0.024,0.226-0.046,0.339-0.067
			c-0.475,0.833-1.116,2.051-1.755,3.546c-0.453-0.217-0.882-0.454-1.26-0.726c1.44-1.694,2.656-2.716,2.686-2.74L22.862,10.132z
			 M20.209,10.993c-0.301,0.317-0.622,0.673-0.955,1.063c-0.124-0.132-0.255-0.263-0.361-0.402
			C19.317,11.409,19.758,11.193,20.209,10.993z M17.865,12.306c0.183,0.244,0.388,0.479,0.61,0.703
			c-0.699,0.896-1.41,1.925-2.048,3.06c-0.461-0.426-0.866-0.879-1.197-1.361C16,13.798,16.886,12.991,17.865,12.306z
			 M14.453,15.715c0.397,0.52,0.867,1.008,1.396,1.464c-0.521,1.075-0.958,2.228-1.247,3.441c-0.691-0.497-1.312-1.038-1.845-1.619
			C13.175,17.824,13.748,16.721,14.453,15.715z M11.995,24.371c-0.016-0.262-0.025-0.525-0.025-0.791
			c0-1.122,0.139-2.213,0.394-3.258c0.593,0.573,1.262,1.105,1.993,1.593c-0.076,0.538-0.125,1.085-0.135,1.641
			c-0.014,0.84,0.056,1.657,0.184,2.45C13.527,25.514,12.716,24.967,11.995,24.371z M14.122,30.95
			c-0.938-1.472-1.604-3.129-1.927-4.907c0.779,0.553,1.632,1.057,2.542,1.508c0.448,1.67,1.147,3.201,1.926,4.541
			C15.771,31.754,14.919,31.373,14.122,30.95z M15.764,33.047c0.627,0.254,1.28,0.479,1.947,0.686
			c0.519,0.742,1.038,1.4,1.511,1.957C17.934,34.992,16.766,34.1,15.764,33.047z M22.007,36.818
			c-0.162-0.146-1.171-1.074-2.352-2.562c0.538,0.123,1.088,0.229,1.645,0.321c0.413,0.97,0.812,1.765,1.129,2.353
			C22.288,36.895,22.147,36.858,22.007,36.818z M24.017,37.225c-0.213-0.353-0.708-1.211-1.27-2.444
			c0.765,0.088,1.541,0.146,2.331,0.174c0.055,0.954,0.108,1.761,0.151,2.369C24.821,37.309,24.416,37.273,24.017,37.225z"/>
		<path d="M23.17,25.646h-2.504v-0.008c0.261-0.158,0.534-0.313,0.819-0.461c0.286-0.147,0.549-0.314,0.788-0.498
			c0.238-0.182,0.434-0.396,0.587-0.64c0.154-0.243,0.231-0.544,0.231-0.898c0-0.291-0.055-0.548-0.164-0.768
			c-0.106-0.22-0.262-0.401-0.46-0.544c-0.199-0.143-0.438-0.251-0.717-0.322c-0.277-0.071-0.584-0.108-0.917-0.108
			c-0.372,0-0.707,0.055-1.007,0.159c-0.298,0.106-0.553,0.262-0.759,0.466c-0.206,0.205-0.36,0.454-0.462,0.751
			c-0.101,0.298-0.14,0.638-0.117,1.019h1.494c-0.011-0.34,0.046-0.614,0.171-0.823c0.123-0.21,0.345-0.314,0.664-0.314
			c0.186,0,0.343,0.048,0.472,0.148c0.131,0.097,0.195,0.273,0.195,0.527c0,0.101-0.025,0.191-0.075,0.271s-0.114,0.151-0.191,0.214
			c-0.076,0.064-0.158,0.123-0.246,0.176s-0.166,0.102-0.235,0.145c-0.173,0.104-0.354,0.211-0.539,0.322
			c-0.187,0.106-0.365,0.221-0.537,0.342c-0.173,0.117-0.334,0.246-0.486,0.385c-0.149,0.138-0.284,0.285-0.4,0.445
			c-0.138,0.186-0.242,0.393-0.313,0.621c-0.071,0.227-0.1,0.477-0.083,0.746h4.792L23.17,25.646L23.17,25.646z"/>
		<path d="M26.105,26.998h1.654v-1.097h0.747v-1.353h-0.747v-3.085h-1.583l-2.528,2.942V25.9h2.457V26.998z M24.753,24.549
			l1.352-1.551v1.551H24.753z"/>
		<path d="M30.724,24.819c0-0.164,0.021-0.298,0.062-0.399c0.04-0.104,0.089-0.187,0.149-0.242c0.062-0.061,0.129-0.1,0.203-0.121
			c0.073-0.021,0.146-0.031,0.215-0.031c0.117,0,0.207,0.021,0.274,0.061c0.065,0.039,0.117,0.096,0.154,0.168
			c0.038,0.07,0.062,0.156,0.07,0.258c0.012,0.101,0.018,0.209,0.018,0.326V27h1.574v-2.83c0-0.239-0.039-0.445-0.115-0.621
			c-0.077-0.175-0.183-0.319-0.313-0.433c-0.133-0.114-0.284-0.2-0.454-0.259c-0.17-0.059-0.349-0.088-0.531-0.088
			c-0.334,0-0.602,0.053-0.795,0.155c-0.196,0.104-0.361,0.234-0.493,0.394h-0.018v-1.995h-1.572V27h1.572V24.819z"/>
	</g>
</g>
</svg>