<?xml version="1.0" encoding="utf-8"?>
<!-- Uploaded to: SVG Repo, www.svgrepo.com, Generator: SVG Repo Mixer Tools -->
<svg fill="#000000" version="1.1" id="Layer_1" xmlns="http://www.w3.org/2000/svg" xmlns:xlink="http://www.w3.org/1999/xlink" 
	 width="800px" height="800px" viewBox="0 0 256 160" enable-background="new 0 0 256 160" xml:space="preserve">
<path d="M252,113h-5V91c0-7.4-5.52-13-13-13h-24c-0.5,0-1.1-0.27-1.44-0.6l-37.4-36.41c-1.68-1.68-3.72-2.91-6.16-2.99h-27v92h40
	c0.92,0,1.83-1.16,2-2c2.52-14.46,14.83-25.43,30.04-25.43c15.22,0,27.82,11.01,30.34,25.47c0.17,0.93,1.7,1.96,2.62,1.96h2
	c4.79,0,9-4.31,9-9.02v-6.22C254,113.84,253.01,113,252,113z M191,78h-41c-1.01,0-2-0.99-2-2l-0.04-25.85
	c0-1.01,1.03-2.15,2.04-2.15h13c0.5,0,1.52,0.55,1.94,0.89L192,75C193.01,76.26,192.6,78,191,78z M2,2v119.44
	c0,4.48,3.52,8.56,8,8.56h22c0.92,0,1.83-1.16,2-2c2.52-14.46,15.33-24.44,30.54-24.44c15.21,0,27.82,10.02,30.34,24.48
	c0.17,0.93,1.2,1.96,2.12,1.96h33V2H2z M89,87H44V45h5.44v-8.64c0-9.3,7.61-16.92,16.92-16.92s16.92,7.62,16.92,16.92V45H89V87z
	 M66.42,26.21c-5.59,0-10.15,4.57-10.15,10.15V45h20.3v-8.64C76.57,30.78,72,26.21,66.42,26.21z M72.79,62.76
	c0-3.73-3.05-6.77-6.77-6.77c-3.72,0-6.77,3.04-6.77,6.77c0,2.36,1.19,4.39,3.05,5.58l-1.35,7.95H71.1l-1.36-7.95
	C71.61,67.15,72.79,65.12,72.79,62.76z M210.04,110.48c-12.77,0-23.11,10.33-23.11,23.11c0,12.77,10.34,23.11,23.11,23.11
	c12.78,0,23.12-10.34,23.12-23.11C233.16,120.81,222.82,110.48,210.04,110.48z M210.04,142.44c-4.85,0-8.85-4-8.85-8.85
	c0-4.85,4-8.85,8.85-8.85c4.86,0,8.86,4,8.86,8.85C218.9,138.44,214.9,142.44,210.04,142.44z M64.54,111.46
	c-12.78,0-23.11,10.34-23.11,23.11c0,12.78,10.33,23.12,23.11,23.12c12.77,0,23.11-10.34,23.11-23.12
	C87.65,121.8,77.31,111.46,64.54,111.46z M64.54,143.43c-4.85,0-8.85-4-8.85-8.86c0-4.85,4-8.85,8.85-8.85c4.85,0,8.85,4,8.85,8.85
	C73.39,139.43,69.39,143.43,64.54,143.43z"/>
</svg>